<svg id="Layer_1" data-name="Layer 1" xmlns="http://www.w3.org/2000/svg" viewBox="0 0 64 64"><defs><style>.cls-2{fill:#0072c6}</style></defs><path fill="#fff" d="M12.06 18.29h18.15v24.75H12.06z"/><path class="cls-2" d="M47.88 33A3.93 3.93 0 1 1 44 36.94 3.93 3.93 0 0 1 47.88 33M47.88 46.62l-2.76-4.74s-2.56 0-3.5 1-1.36 3.12-1.47 4.36a1.2 1.2 0 0 0 .7 1.21 16.2 16.2 0 0 0 7 1.24 16.66 16.66 0 0 0 7.15-1.2 1.18 1.18 0 0 0 .7-1.17c-.08-1.16-.58-3.42-1.59-4.43-1.17-1.25-3.54-1-3.54-1z"/><path class="cls-2" d="M38.12 48.59a8.58 8.58 0 0 1 1.41-6.48 5.8 5.8 0 0 1 3.25-1.74 5.9 5.9 0 0 1-.94-3.18 6 6 0 0 1 10.85-3.45V16.39a1.83 1.83 0 0 0-1.83-1.83H36.75V18h11.78v2.1H36.75v2.77h11.78V25H36.75v2.78h9v2.08h-9V49.9h2a3 3 0 0 1-.67-1.31M8.33 12.92V51l27 5V8zm18 13.67a7.55 7.55 0 0 0-3.7-1.08 3.87 3.87 0 0 0-3.27 1.63 7.19 7.19 0 0 0-1.24 4.43 7.14 7.14 0 0 0 1.16 4.28 3.74 3.74 0 0 0 3.15 1.59 4.54 4.54 0 0 0 3.21-1.16v3.77a6.21 6.21 0 0 1-3.87 1 6.1 6.1 0 0 1-5.21-2.49 10.65 10.65 0 0 1-1.91-6.65 11.19 11.19 0 0 1 2.14-7.15A6.75 6.75 0 0 1 22.37 22a11.72 11.72 0 0 1 4 .7z"/></svg>