<svg data-name="Layer 1" xmlns="http://www.w3.org/2000/svg" viewBox="0 0 64 64"><path d="M50.87 18.5a4.36 4.36 0 0 0-4.36-4.37h-.12a4.32 4.32 0 0 0-4.31 4.43l-1 21.22C41 45.8 37 50.1 31.65 50.1s-9.32-4.36-9.44-10.32l-1-21.22V18a4.37 4.37 0 0 0-8.73.48v34.45a3.07 3.07 0 1 1-6.13 0V18.5a10.47 10.47 0 1 1 20.93-.06l1.06 21.17c0 2.41.89 4.36 3.37 4.36s3.36-1.95 3.36-4.36l1.06-21.17A10.44 10.44 0 1 1 57 18.5v22.7a3.07 3.07 0 0 1-6.13 0zm3.18 30.25a3.6 3.6 0 1 0 3.6 3.59 3.59 3.59 0 0 0-3.6-3.59" fill="#f8bb15"/></svg>