<?xml version="1.0" encoding="UTF-8"?>
<svg width="190px" height="34px" viewBox="0 0 190 34" version="1.1" xmlns="http://www.w3.org/2000/svg" xmlns:xlink="http://www.w3.org/1999/xlink">
    <title>Fichier 6</title>
    <g id="Page-1" stroke="none" stroke-width="1" fill="none" fill-rule="evenodd">
        <g id="Fichier-6" fill-rule="nonzero">
            <path d="M84.8,17.43 C84.6295991,17.312478 84.4190573,17.2685133 84.2158655,17.3080228 C84.0126738,17.3475323 83.8339471,17.4671881 83.72,17.64 L81.72,20.57 C81.47,20.93 81.46,21.36 82.07,21.75 C84.5069639,23.3225918 87.3398173,24.1721011 90.24,24.2 C94.93,24.2 99.11,21.58 99.11,17.31 C99.11,9.59 88.31,10.74 88.31,7.84 C88.31,6.69 89.69,6.05 91.31,6.05 C92.6169582,6.0662571 93.8939861,6.44348215 95,7.14 L95,7.14 C95.1736556,7.25293099 95.3851006,7.29214731 95.5877038,7.24900035 C95.7903069,7.20585339 95.967426,7.08388729 96.08,6.91 L98.08,3.91 L98.08,3.91 C98.2866091,3.58208244 98.2133629,3.15122233 97.91,2.91 C95.7799589,1.68264573 93.3682815,1.02804758 90.91,1.01 C86.5,1.01 82.37,3.67 82.37,7.95 C82.37,15.11 93.16,13.95 93.16,17.27 C93.16,18.37 91.92,19.15 90.32,19.15 C88.3765264,19.1554364 86.4767917,18.5733159 84.87,17.48 L84.8,17.43 Z" id="Path" fill="#571F38"></path>
            <path d="M35.85,9.73 C35.5816797,7.49825536 33.6878165,5.81911589 31.44,5.82 C29.1164977,5.80633184 27.1125393,7.44898951 26.67,9.73 L35.85,9.73 Z M40.85,19.67 C41.1484364,19.9798214 41.1484364,20.4701786 40.85,20.78 C38.531187,22.9982831 35.4389003,24.2251532 32.23,24.2 C25.57,24.2 20.56,19.6 20.56,12.62 C20.6,6.42 24.83,1 31.44,1 C37.34,1 41.59,5.76 41.94,11.61 L41.94,11.61 C42.026169,12.8832136 41.0721111,13.9888508 39.8,14.09 L26.39,14.09 C26.6886214,17.1548477 29.3120577,19.4634716 32.39,19.37 C34.2434305,19.3286649 36.0193537,18.6182956 37.39,17.37 L37.46,17.37 C37.6048285,17.222185 37.8030591,17.1388877 38.01,17.1388877 C38.2169409,17.1388877 38.4151715,17.222185 38.56,17.37 L40.85,19.67 Z" id="Shape" fill="#571F38"></path>
            <path d="M157.92,3.25 C159.569235,1.77768596 161.709329,0.975150865 163.92,1 C166.80861,0.99154406 169.550698,2.27094068 171.4,4.49 C173.461439,2.30048978 176.323042,1.04109557 179.33,1 C182.33114,0.982730809 185.186366,2.29320643 187.13,4.58 C188.743031,6.67833298 189.545427,9.28789637 189.39,11.93 L189.39,19.93 C189.43774,20.9782715 189.58507,22.0196268 189.83,23.04 C189.852779,23.2293628 189.793774,23.4194588 189.667774,23.5626409 C189.541774,23.705823 189.360722,23.7885185 189.17,23.79 L186.17,23.79 C185.433607,23.7873608 184.728573,23.4916067 184.210683,22.9680876 C183.692793,22.4445685 183.404678,21.7363789 183.41,21 L183.41,11.7 C183.41,9.7 183,8.7 182.31,7.89 C181.447637,6.98817677 180.247583,6.48785207 179,6.51 C176.850048,6.61078185 174.865981,7.69501199 173.62,9.45 C173.73501,10.2718933 173.798467,11.100179 173.81,11.93 L173.81,23 C173.81,23.4307821 173.460782,23.78 173.03,23.78 L168.62,23.78 C168.411404,23.7826745 168.210429,23.7016784 168.061981,23.5551092 C167.913532,23.4085399 167.829983,23.2086132 167.83,23 L167.83,11.7 C167.83,9.7 167.42,8.7 166.73,7.89 C165.858167,6.97778334 164.641393,6.47654497 163.38,6.51 C161.323117,6.60323053 159.417273,7.616743 158.19,9.27 L158.19,23 C158.19,23.4307821 157.840782,23.78 157.41,23.78 L153,23.78 C152.569218,23.78 152.22,23.4307821 152.22,23 L152.22,2.24 C152.22,1.8092179 152.569218,1.46 153,1.46 L155.38,1.46 C156.529606,1.45874379 157.558683,2.17271578 157.96,3.25 L157.92,3.25 Z" id="Path" fill="#571F38"></path>
            <path d="M112.5,18.68 C110.368041,18.6964555 108.362716,17.6695201 107.13,15.93 L107.13,9.27 C108.424711,7.5278592 110.469449,6.50363426 112.64,6.5099705 C114.220292,6.5325665 115.723708,7.19575443 116.805835,8.34763578 C117.887963,9.49951714 118.456066,11.0413789 118.38,12.62 C118.445936,14.2151813 117.853674,15.7674075 116.741893,16.9132229 C115.630112,18.0590384 114.096444,18.6978214 112.5,18.68 Z M107.13,22.18 C108.840143,23.517471 110.959403,24.223891 113.13,24.18 C116.356464,24.1908431 119.432847,22.8183031 121.58,20.41 C123.422849,18.2278281 124.420119,15.4560565 124.39,12.6 C124.36,6.05 119.49,1 113.42,1 C111.05187,0.973470677 108.747756,1.76860213 106.9,3.25 C106.498683,2.17271578 105.469606,1.45874379 104.32,1.46 L101.37,1.46 C100.94,1.46 100.72,1.79 100.72,2.21 C100.964748,3.22363516 101.112084,4.25833696 101.16,5.3 L101.16,32.3 C101.16,32.7307821 101.509218,33.08 101.94,33.08 L104.37,33.08 C105.892028,33.0745152 107.124515,31.8420282 107.13,30.32 L107.13,22.18 Z" id="Shape" fill="#571F38"></path>
            <path d="M47.28,1.45 C48.615058,1.44320316 49.7621312,2.39628604 50,3.71 L50,3.71 C51.6550592,1.9017984 54.0203246,0.911092168 56.47,1 C56.93,1 57.29,1 57.62,1.06 L57.71,1.06 C57.9156333,1.08499228 58.1028798,1.19075467 58.2304447,1.35396274 C58.3580097,1.51717082 58.4154147,1.72441843 58.39,1.93 L57.9,5.93 C57.8776129,6.13678052 57.7725264,6.32570977 57.6086546,6.45379342 C57.4447829,6.58187707 57.2360655,6.63821987 57.03,6.61 C56.5685843,6.55669838 56.1044841,6.52998758 55.64,6.53 C53.4038097,6.61349005 51.3627837,7.8260553 50.22,9.75 L50.22,23 L50.22,23 C50.22,23.4307821 49.8707821,23.78 49.44,23.78 L45,23.78 C44.5692179,23.78 44.22,23.4307821 44.22,23 L44.22,5.13 C44.1518793,4.14376621 44.0081233,3.16421975 43.79,2.2 C43.79,1.78 44.01,1.45 44.44,1.45 L47.28,1.45 Z" id="Path" fill="#571F38"></path>
            <path d="M7.99999425,18.68 L18.9999942,18.68 C19.2086132,18.6799829 19.4085399,18.7635325 19.5551092,18.9119808 C19.7016784,19.0604292 19.7826745,19.261404 19.7800642,19.47 L19.7800642,23 L19.7800642,23 C19.7800642,23.4307821 19.4307821,23.78 18.9999942,23.78 L0.78,23.78 C0.349217895,23.78 -5.75289717e-06,23.4307821 -5.75289717e-06,23 L-5.75289717e-06,21 C-0.0013114466,20.3609073 0.221635761,19.7416095 0.63,19.25 L10.79,6.51 L1.7,6.51 C1.2692179,6.51 0.92,6.1607821 0.92,5.73 L0.92,2.24 L0.92,2.24 C0.92,1.8092179 1.2692179,1.46 1.7,1.46 L18.05,1.46 C18.2568689,1.46 18.4552649,1.54217834 18.6015433,1.68845671 C18.7478217,1.83473509 18.83,2.03313114 18.83,2.24 L18.83,4.17 C18.8338889,4.80953714 18.6106336,5.42969095 18.2,5.92 L7.99999425,18.68 Z" id="Path" fill="#571F38"></path>
            <path d="M149.43,11.93 L149.43,4.16 C149.391818,2.64584314 148.144544,1.44311464 146.63,1.46 L144.46,1.46 C144.029218,1.46 143.68,1.8092179 143.68,2.24 L143.68,3.24 C141.832516,1.75923843 139.527442,0.967311142 137.16,1 C131.1,1 126.229806,6.05 126.229806,12.62 C126.213715,15.480691 127.225066,18.2521483 129.08,20.43 C131.207771,22.8358852 134.268208,24.2094385 137.48,24.2 C139.75199,24.2317198 141.957148,23.431461 143.68,21.95 L143.68,21.95 C144.081705,23.032789 145.115098,23.7509777 146.27,23.75 L149.21,23.75 C149.400722,23.7485185 149.581774,23.665823 149.707774,23.5226409 C149.833774,23.3794588 149.892779,23.1893628 149.87,23 C149.62507,21.9796268 149.47774,20.9382715 149.43,19.89 L149.43,11.93 Z M143.43,15.93 C142.198436,17.6708506 140.192365,18.6981685 138.06,18.68 C136.463556,18.6978214 134.929888,18.0590384 133.818107,16.9132229 C132.706326,15.7674075 132.114064,14.2151813 132.18,12.62 C132.103934,11.0413789 132.672037,9.49951714 133.754165,8.34763578 C134.836292,7.19575443 136.339708,6.5325665 137.92,6.50995383 C140.090927,6.50202902 142.136349,7.52659618 143.43,9.27 L143.43,15.93 Z" id="Shape" fill="#571F38"></path>
            <path d="M63.78,10.67 C64.3224067,8.92636763 65.6808783,7.55669982 67.42,7 C67.7120197,6.90340638 67.9067729,6.62750606 67.9,6.32 L67.9,2 C67.9127543,1.76953938 67.8157656,1.54662309 67.63845,1.39886003 C67.4611343,1.25109697 67.2243826,1.1958963 67,1.25 C62.4737503,2.18695797 58.936958,5.72375027 58,10.25 C57.9546017,10.4661915 58.009543,10.6913125 58.1494295,10.8622849 C58.289316,11.0332573 58.4990997,11.1316891 58.72,11.1300513 L63.1,11.1300513 C63.4004446,11.1335738 63.6715197,10.9501995 63.78,10.67 L63.78,10.67 Z" id="Path" fill="#E40138"></path>
            <path d="M71.27,7 C73.0008829,7.55858427 74.3561665,8.91759119 74.91,10.65 C75.0084433,10.9420288 75.2818264,11.1390255 75.59,11.14 L80,11.14 C80.2217565,11.138611 80.431201,11.0378428 80.5706769,10.8654352 C80.7101527,10.6930276 80.7649559,10.4671563 80.72,10.25 C79.783042,5.72375027 76.2462497,2.18695797 71.72,1.25 C71.5055241,1.20496451 71.2821623,1.25866848 71.1116011,1.3962803 C70.94104,1.53389212 70.8413269,1.74085085 70.84,1.96 L70.84,6.34 C70.834206,6.62742615 71.0047371,6.8891715 71.27,7 L71.27,7 Z" id="Path" fill="#E40138"></path>
            <path d="M74.92,14.53 C74.3775754,16.2728569 73.0128569,17.6375754 71.27,18.18 C70.9784197,18.2830475 70.7852122,18.5607834 70.789913,18.87 L70.789913,23.24 C70.7919679,23.4596209 70.8913903,23.6670202 71.0613743,23.806098 C71.2313583,23.9451759 71.4543384,24.0015604 71.67,23.96 C76.1923647,23.0158484 79.7258484,19.4823647 80.67,14.96 C80.7153983,14.7438085 80.660457,14.5186875 80.5205705,14.3477151 C80.380684,14.1767427 80.1709003,14.0783109 79.95,14.08 L75.61,14.08 C75.3084328,14.0706128 75.0329964,14.2502453 74.92,14.53 Z" id="Path" fill="#E40138"></path>
            <path d="M67.41,18.18 C65.6718915,17.6332644 64.3119651,16.2696019 63.77,14.53 C63.6669525,14.2384197 63.3892166,14.0452122 63.08,14.049913 L58.71,14.049913 C58.4882435,14.051389 58.278799,14.1521572 58.1393231,14.3245648 C57.9998473,14.4969724 57.9450441,14.7228437 57.99,14.94 C58.9245481,19.4675495 62.4624505,23.0054519 66.99,23.94 C67.2059429,23.9885106 67.4322335,23.9364333 67.6052485,23.7984101 C67.7782635,23.6603869 67.8793181,23.4513236 67.88,23.23 L67.88,18.87 C67.8862788,18.5633735 67.6976331,18.2864256 67.41,18.18 L67.41,18.18 Z" id="Path" fill="#E40138"></path>
        </g>
    </g>
</svg>