<svg xmlns="http://www.w3.org/2000/svg" width="191.278" height="63.474"><defs><style>.b{fill:#213366}</style></defs><path d="M148.479 24.544c-3.406 0-4.416 2.39-4.416 7.169v2.842c0 4.263.5 7.3 4.416 7.3 3.406 0 4.416-3.036 4.416-7.3v-3.552c-.063-4.328-1.136-6.459-4.416-6.459zm-31.203.16c-3.28 0-4.353 2.131-4.416 6.459v3.552c0 4.263 1.009 7.3 4.416 7.3 3.911 0 4.416-3.036 4.416-7.3v-2.842c-.001-4.779-1.01-7.169-4.416-7.169zm-81.042 9.853v-3.552c-.063-4.327-1.135-6.459-4.416-6.459-3.407 0-4.416 2.39-4.416 7.169v2.842c0 4.263.5 7.3 4.416 7.3 3.407-.001 4.416-3.033 4.416-7.3zm49.612-9.853c-3.406 0-4.416 2.39-4.416 7.169v2.842c0 4.263.5 7.3 4.416 7.3s4.416-3.036 4.416-7.3v-2.842c.001-4.779-1.009-7.169-4.416-7.169z" fill="none"/><path class="b" d="M118.79 16.566a8.088 8.088 0 00-5.93 2.067V9.967h-8.831v39.541h8.832v-1.421a8.11 8.11 0 005.93 2.067c8.2 0 12.364-5.942 12.364-14.984v-3.746c-.001-9.884-4.921-14.858-12.365-14.858zm2.9 18.149c0 4.263-.5 7.3-4.416 7.3-3.406 0-4.415-3.036-4.415-7.3v-3.552c.063-4.328 1.135-6.459 4.415-6.459 3.406 0 4.416 2.39 4.416 7.169zm57.728-6.006c-2.9-.581-3.911-1.1-3.911-2.2 0-1.421 1.64-1.679 2.965-1.679 2.9 0 4.164.84 5.362 2.26l7-5.167c-2.46-4.134-7-5.361-12.175-5.361-8.075 0-12.617 3.875-12.617 10.334 0 6.329 4.605 9.3 11.733 10.915 2.965.646 4.037 1.1 4.037 2.325 0 1.162-1.262 1.744-3.343 1.744-3.6 0-4.857-1.033-5.93-2.519l-7.317 5.425c2.839 3.94 7 5.361 13.436 5.361 8.138 0 12.616-3.811 12.616-10.269.002-5.938-3.213-9.49-11.856-11.169zM85.847 16.566c-8.832 0-13.878 4.973-13.878 14.855v3.746c0 9.042 4.29 14.984 13.878 14.984 9.715 0 13.878-5.942 13.878-14.984v-3.746c0-9.882-4.92-14.855-13.878-14.855zm4.416 18.149c0 4.263-.5 7.3-4.416 7.3s-4.416-3.036-4.416-7.3v-2.842c0-4.78 1.009-7.169 4.416-7.169s4.416 2.39 4.416 7.169zm62.632-15.12a6.093 6.093 0 00-5.93-3.189c-7.443 0-12.364 4.973-12.364 14.855v3.746c0 9.042 4.163 14.984 12.364 14.984a6.23 6.23 0 005.93-3.189v2.543h8.832v-32.29h-8.832zm0 14.961c0 4.263-1.009 7.3-4.416 7.3-3.911 0-4.416-3.036-4.416-7.3v-2.842c0-4.78 1.01-7.169 4.416-7.169 3.28 0 4.353 2.131 4.416 6.459z"/><path d="M50.027 13.814h7.7A31.338 31.338 0 0046.28 3.536 30.061 30.061 0 0036.057.274a30.555 30.555 0 00-18.055 3.11A31.352 31.352 0 009.19 9.999a33.842 33.842 0 00-8.476 16.5 34.376 34.376 0 00-.512 10.629 36.532 36.532 0 002.253 9.2 5.947 5.947 0 001.4 2.38 4.693 4.693 0 006.1.285 4.989 4.989 0 001.439-6.146 22.9 22.9 0 01-2.185-7.054 24.467 24.467 0 01.182-8.437 25 25 0 016.2-12.392A23.332 23.332 0 0128.241 7.7c8.125-1.658 15.456.398 21.786 6.114zM36.851 60.021a25.526 25.526 0 01-12.784-.567 1.826 1.826 0 00-.852-.065 1.191 1.191 0 00-.968 1.1 1.209 1.209 0 00.8 1.239c.127.043.253.087.379.132.282.1.574.2.875.294a28.593 28.593 0 009.9 1.284 29.049 29.049 0 0017.4-6.843 29.775 29.775 0 003.742-3.727h-5.33a25.794 25.794 0 01-13.162 7.153z" fill="#42c4f0"/><path class="b" d="M66.609 16.566a8.131 8.131 0 00-6.624 3.1v-2.454h-9.21v32.294h9.459V31.098c0-4.327 1.577-6.265 4.289-6.265a5.425 5.425 0 013.974 1.439c.715-3.361 1.59-5.776 3.939-8.276a11.283 11.283 0 00-5.827-1.43zM36.234 46.805v2.543h8.832v-32.29h-8.832v2.539a6.093 6.093 0 00-5.93-3.188c-7.443 0-12.364 4.973-12.364 14.855v3.746c0 9.042 4.163 14.984 12.364 14.984a6.23 6.23 0 005.93-3.189zm-8.831-12.248v-2.843c0-4.779 1.009-7.169 4.416-7.169 3.28 0 4.352 2.132 4.416 6.459v3.552c0 4.263-1.009 7.3-4.416 7.3-3.907 0-4.417-3.036-4.417-7.299z"/></svg>